HIERARCHY
ROOT Hips
{
  OFFSET 3.13124 94.3669 -3.18751
  CHANNELS  6 Xposition Yposition Zposition Zrotation Xrotation Yrotation
  JOINT LeftUpLeg
  {
    OFFSET 8.64259 1.95398 -2.38835
    CHANNELS 3 Zrotation Xrotation Yrotation
    JOINT LeftLeg
    {
      OFFSET 43.7702 0 0
      CHANNELS 3 Zrotation Xrotation Yrotation
      JOINT LeftFoot
      {
        OFFSET 40.6238 0 0
        CHANNELS 3 Zrotation Xrotation Yrotation
        JOINT LeftToeBase
        {
          OFFSET 12.7242 0 0
          CHANNELS 3 Zrotation Xrotation Yrotation
          End Site
          {
            OFFSET 0 0 0
          }
        }
      }
    }
  }
  JOINT RightUpLeg
  {
    OFFSET -8.2249 1.95398 -2.59336
    CHANNELS 3 Zrotation Xrotation Yrotation
    JOINT RightLeg
    {
      OFFSET 43.5653 0 0
      CHANNELS 3 Zrotation Xrotation Yrotation
      JOINT RightFoot
      {
        OFFSET 40.6238 0 0
        CHANNELS 3 Zrotation Xrotation Yrotation
        JOINT RightToeBase
        {
          OFFSET 12.7242 0 0
          CHANNELS 3 Zrotation Xrotation Yrotation
          End Site
          {
            OFFSET 0 0 0
          }
        }
      }
    }
  }
  JOINT Spine
  {
    OFFSET 0.165834 0.87714 6.61349
    CHANNELS 3 Zrotation Xrotation Yrotation
    JOINT Spine1
    {
      OFFSET 7.38962 1.71661e-005 0
      CHANNELS 3 Zrotation Xrotation Yrotation
      JOINT Spine2
      {
        OFFSET 11.9445 1.14441e-005 0
        CHANNELS 3 Zrotation Xrotation Yrotation
        JOINT Spine3
        {
          OFFSET 14.7254 4.19617e-005 0
          CHANNELS 3 Zrotation Xrotation Yrotation
          JOINT Spine4
          {
            OFFSET 10.9679 0 0
            CHANNELS 3 Zrotation Xrotation Yrotation
            JOINT RightShoulder
            {
              OFFSET 2.46616 -1.6653 3.69651
              CHANNELS 3 Zrotation Xrotation Yrotation
              JOINT RightArm
              {
                OFFSET 13.0012 0 0
                CHANNELS 3 Zrotation Xrotation Yrotation
                JOINT RightForeArm
                {
                  OFFSET 28.7848 1.52588e-005 0
                  CHANNELS 3 Zrotation Xrotation Yrotation
                  JOINT RightHand
                  {
                    OFFSET 26.5688 1.52588e-005 0
                    CHANNELS 3 Zrotation Xrotation Yrotation
                    End Site
                    {
                      OFFSET 0 0 0
                    }
                  }
                }
              }
            }
            JOINT LeftShoulder
            {
              OFFSET 2.38034 -1.29275 -3.75231
              CHANNELS 3 Zrotation Xrotation Yrotation
              JOINT LeftArm
              {
                OFFSET 16.3182 6.10352e-005 0
                CHANNELS 3 Zrotation Xrotation Yrotation
                JOINT LeftForeArm
                {
                  OFFSET 27.0901 0 0
                  CHANNELS 3 Zrotation Xrotation Yrotation
                  JOINT LeftHand
                  {
                    OFFSET 24.5451 1.52588e-005 0
                    CHANNELS 3 Zrotation Xrotation Yrotation
                    End Site
                    {
                      OFFSET 0 0 0
                    }
                  }
                }
              }
            }
            JOINT Neck
            {
              OFFSET 5.0226 -0.0266342 0
              CHANNELS 3 Zrotation Xrotation Yrotation
              JOINT Head
              {
                OFFSET 6.69363 2.86102e-005 0
                CHANNELS 3 Zrotation Xrotation Yrotation
                End Site
                {
                  OFFSET 0 0 0
                }
              }
            }
          }
        }
      }
    }
  }
}
MOTION
Frames:	6
Frame Time:	0.0333333
68.5648 81.1465 -108.337 -6.36335 -64.3971 -4.86617 -168.761 43.4326 62.1685 -62.3815 -51.1879 -3.84913 76.0936 -0.595101 0.110065 28.7808 2.50881e-006 2.15835e-006 175.019 70.3348 97.5237 -39.0253 41.1704 2.96756 58.488 -7.2764 -4.51557 28.7808 1.36115e-005 7.39055e-006 0.0729066 12.3049 -92.2935 2.22956 -0.772026 -4.19811 -9.44785 -0.955611 -4.1604 -31.928 0.535698 -4.23467 -11.9154 0.535704 -4.23468 88.4459 -15.6178 -117.646 24.3473 23.2587 -31.7623 91.116 -10.0101 -91.7484 39.4371 -11.0982 -34.9687 -118.925 -34.5173 27.7581 -19.9634 -18.0671 -48.917 -82.9558 0.726428 -92.4192 -43.4275 14.8881 -43.0543 -25.6201 -3.52153 19.2688 0.704115 -2.49942 -25.9643 
66.7304 81.2621 -110.829 -1.87389 -61.6495 -2.42505 -166.08 47.4781 59.1197 -62.4768 -51.5323 -3.90222 76.2466 -0.669551 0.0806334 28.7808 2.50881e-006 2.15835e-006 176.2 72.315 95.4054 -34.3832 40.8625 3.01744 56.5992 -8.35228 -5.34817 28.7808 1.36115e-005 7.39055e-006 0.174536 12.5025 -92.092 1.83954 -0.564877 -3.74549 -9.83668 -0.729068 -3.71707 -32.3288 0.584927 -3.74224 -12.3161 0.584931 -3.74224 89.3879 -14.9808 -115.692 24.2694 22.4136 -34.1723 92.3334 -6.47065 -91.9625 40.339 -10.7953 -33.4253 -120.383 -33.946 25.3142 -19.9174 -17.4164 -47.2894 -85.2821 -1.16146 -92.1525 -41.7941 14.0494 -42.5481 -24.4903 -3.48103 19.6876 6.70232 -4.02435 -25.2167 
64.8416 81.2233 -112.882 3.95904 -59.6339 1.60547 -162.934 50.7015 56.0682 -63.9479 -48.5824 -3.33994 75.3444 -0.671722 0.0426737 28.7808 2.50881e-006 2.15835e-006 178.416 73.8697 91.5406 -30.5838 40.3571 3.02528 50.0436 -10.8076 -7.70036 28.7808 1.36115e-005 7.39055e-006 0.229002 12.6107 -92.1211 1.62655 -0.548607 -3.74134 -10.0496 -0.712614 -3.71365 -32.542 0.60245 -3.73343 -12.5293 0.602428 -3.7334 90.1322 -13.3769 -114.945 24.1353 21.1713 -35.5278 95.069 -2.47234 -91.8979 39.8309 -10.4893 -33.0572 -122.86 -34.1133 22.0167 -19.8093 -17.1743 -46.6129 -87.8299 -5.4222 -92.1133 -42.1216 14.2205 -42.7655 -25.307 -4.80053 21.3694 13.8895 -6.61787 -25.0277 
62.9984 80.8246 -114.789 8.59508 -58.0895 4.47208 -159.364 53.372 52.3275 -65.9044 -48.3108 -3.23592 74.2338 -2.26937 -0.722058 28.7808 2.50881e-006 2.15835e-006 -179.624 75.3905 88.2153 -27.5448 38.288 2.80837 44.9383 -13.3035 -10.3584 28.7808 1.36115e-005 7.39055e-006 0.259076 12.5987 -92.2309 1.64603 -0.548392 -3.9506 -10.0309 -0.72226 -3.9227 -32.5182 0.662658 -3.93319 -12.5055 0.662646 -3.93319 90.675 -10.9504 -115.222 23.706 20.4501 -35.8558 95.7765 4.63581 -93.7205 40.2281 -9.1836 -29.1611 -125.292 -35.0205 19.4549 -19.2694 -19.0219 -44.5835 -114.858 -11.0386 -96.8765 -59.5492 7.61229 -18.3668 -27.3696 -7.2381 24.1685 20.9205 -9.99344 -25.0505 
61.3833 80.1655 -116.501 12.7475 -58.0773 6.8953 -155.782 54.7392 48.1042 -68.3488 -53.0988 -3.96995 72.3777 -2.49614 -0.916527 28.7808 2.50881e-006 2.15835e-006 -177.705 76.112 85.0519 -26.4424 37.4769 2.71715 42.1084 -14.8125 -12.1296 28.7808 1.36115e-005 7.39055e-006 0.259689 12.6092 -92.3784 1.61804 -0.58092 -4.27453 -10.0599 -0.769793 -4.24487 -32.539 0.728594 -4.25221 -12.5263 0.728573 -4.25221 91.594 -7.70384 -115.052 23.5241 17.8327 -39.0857 96.4532 21.9366 -96.2974 54.5125 -11.2587 -26.5285 -126.214 -35.4047 18.537 -19.0812 -19.5536 -43.2061 -135.499 -9.58179 -100.954 -47.2596 2.98915 -11.866 -27.7583 -9.75707 27.2256 24.3493 -12.9791 -25.332 
59.94 79.7686 -118.305 16.6168 -58.5993 9.51024 -153.83 55.1347 45.151 -69.6496 -59.5246 -5.39986 71.4663 -0.863617 -0.176638 28.7808 2.50881e-006 2.15835e-006 -176.741 75.1872 83.055 -23.4684 37.1145 2.69579 38.7672 -16.139 -14.0006 28.7808 1.36115e-005 7.39055e-006 0.181773 12.4892 -92.5025 1.85439 -0.778543 -4.55915 -9.82422 -0.978291 -4.52063 -32.2957 0.626331 -4.58245 -12.283 0.626313 -4.58244 90.9098 -6.95899 -117.875 21.7236 16.7937 -49.1622 119.614 52.9568 -120.182 86.7236 -7.70098 -13.1105 -127.178 -36.5499 18.1573 -18.7174 -19.5493 -44.4839 -152.225 -10.604 -110.115 -39.6365 1.65829 -9.88984 -29.6809 -12.0364 29.8182 27.8635 -15.5804 -26.3209 
